<?xml version="1.0" encoding="UTF-8"?>
<svg xmlns="http://www.w3.org/2000/svg" version="1.1" viewBox="0 0 471.1 579.7">
  <!-- Generator: Adobe Illustrator 28.7.3, SVG Export Plug-In . SVG Version: 1.2.0 Build 164)  -->
  <g>
    <g id="Layer_1">
      <g id="Layer_1-2" data-name="Layer_1">
        <g>
          <g>
            <g>
              <path d="M289.5,447c.4,0,1.3-.2,1.8-1.5.2-.5.4-.9,1.1-2.1.8-1.2,1.9-1.8,6.5-1.8h9.7c0-.1,0,30.1,0,30.1,0,6.9,0,12.9-.4,16-.3,2.1-.6,3-1.2,3.1s-1.4.3-1.9.3c-1,0-1.8.7-1.8,1.6s.2,1.8,2.4,1.8,4.4-.1,6.1-.2h1.9c1.6,0,5.1.2,8.2.2s2.4-1.5,2.4-1.8c0-.8-.7-1.6-1.8-1.6s-2.1-.1-3.1-.3c-1.2-.2-1.6-.8-1.8-3-.3-2.9-.4-8.5-.4-15h0v-31.2h8c7.5.3,7.7,2.2,7.9,3.1v.8c.2,2,1.1,2.4,1.9,2.4h0c.8,0,1.7-.6,1.7-2.2v-2.5c0-1.9.1-4.3.1-5.7h0c0-1.6-.8-2-1.6-2.1-.3,0-.6,0-1,.2-1,.2-2.9.6-6.2.6h-27.6c-.8,0-3.6-.1-5.7-.4-1.1,0-1.6-.3-2.1-.5-.4-.2-.7-.3-1.2-.3h0c-.8.1-1.1.8-1.3,1.1v.2c-.2.2-.3.5-.4.7v.3c-.1,0-1.7,7-1.8,8,0,1.3.8,1.8,1.6,1.9v-.2Z"/>
              <path d="M321.9,495c-1.8,0-3.8,0-5.4-.1-1.2,0-2.2,0-2.8,0h-1.9c-2.2.1-4.3.2-6.1.2-2.7,0-2.9-1.8-2.9-2.3,0-1.2,1-2.1,2.3-2.1s.8,0,1.2-.2c.2,0,.4,0,.6-.1.2,0,.5-.5.8-2.7.4-3.1.4-9,.4-15.9v-29.6h-9.2c-4.7,0-5.5.7-6.1,1.6-.7,1.2-.9,1.5-1.1,2-.5,1.2-1.2,1.6-1.8,1.7v.3h-.6c-1.3-.2-2-1.1-2-2.5,0-.6.5-2.7.9-4.5.5-2.1.7-3.1.9-3.6v-.6c.2-.2.3-.3.4-.5v-.2l.2-.3c.2-.4.6-1.1,1.6-1.2.7,0,1,.1,1.5.3h.2c.4.3.8.4,1.7.4,2.2.3,5,.4,5.7.4h27.6c3.2,0,5-.4,6-.6.5-.2.9-.2,1.2-.2,1.4.2,2.1,1,2.1,2.6s0,1.5,0,2.4c0,1.1,0,2.2,0,3.3v2.5c0,1.9-1.1,2.7-2.2,2.7s-2.2-.5-2.4-2.9v-.8c-.2-.9-.7-2.4-7.4-2.6h-7.5c0,0,0,30.6,0,30.6,0,7.5.1,12.4.4,14.9.2,2.3.6,2.4,1.4,2.6,1,.2,2.5.3,3,.3,1.4,0,2.3,1.1,2.3,2.1,0,.3.2,1-.3,1.5-.4.5-1.3.8-2.6.8ZM312.9,493.8h.8c.7,0,1.7,0,2.9,0,1.6,0,3.6.1,5.3.1s1.7-.3,1.9-.4c.1-.2.1-.4,0-.6,0-.1,0-.2,0-.2,0-.5-.5-1.1-1.3-1.1s-2.2-.1-3.2-.3c-1.6-.3-2-1.3-2.2-3.4-.3-2.6-.4-7.5-.4-15v-31.7h8.5c6.8.3,8,1.8,8.4,3.4v.2s0,.8,0,.8c.2,1.9,1.1,1.9,1.4,1.9.6,0,1.2-.4,1.2-1.7v-2.5c0-1,0-2.2,0-3.3,0-.9,0-1.8,0-2.4,0-1.3-.6-1.5-1.2-1.6-.2,0-.4,0-.7.2h-.1c-1.1.3-3,.7-6.3.7h-27.6c-.8,0-3.6,0-5.8-.4-1,0-1.5-.2-2-.4h-.2c-.4-.3-.6-.4-1-.4-.4,0-.6.3-.8.7h0v.3h-.1c0,.2-.2.4-.2.5h0v.8h-.1c-.4,1.4-1.6,6.7-1.7,7.5,0,.6.2,1,.6,1.2h0s.5,0,.5,0c.2,0,.9,0,1.3-1.2.2-.5.4-.9,1.1-2.2.9-1.4,2.2-2,6.9-2h10.2v30.6c0,6.9,0,12.9-.4,16.1-.3,2.2-.7,3.4-1.6,3.5-.2,0-.4,0-.6.1-.5,0-1,.2-1.4.2-.7,0-1.3.5-1.3,1.1s.3,1.3,1.9,1.3,3.8,0,6.1-.2h1.1Z"/>
            </g>
            <g>
              <path d="M334.1,490.8c-.5,0-1.5.1-2,.1-1.1,0-1.9.7-1.9,1.6s.4,1.8,2.6,1.8,4.6,0,6.7-.2h3.4c1.3,0,2.9.2,3.9.2,2.2,0,2.3-1.5,2.3-1.8,0-.8-.5-1.6-1.9-1.6h-.7c-.3,0-1.6-.2-1.6-1,0-1.3.6-3.3,1-4.6l.4-1.1c.9-2.6,3.1-9.2,4-12.1,4.4,0,6.9.5,13.1,2.5,1,.3,2.1.6,3.1.8,1.9,4.8,4.5,11.8,5.4,14.2.2.5.3.8.3.8h0c0,.3.1.4.1.5-.7.3-1.1.9-1.1,1.6,0,1.6,1.6,1.6,3,1.7h.4c3.2.1,7.3.2,11.6.2s2.7-1.2,2.7-1.8,0-1.6-1.9-1.6-1.8-.1-2.6-.4c-1.3-.4-3.1-1.6-5.5-7.5-.9-2.1-2-5-3.2-8.2,3.8-1.7,5.1-4.8,5.1-4.9l1.2-2.9-2.8,1.3s-1.7.8-4.7.8-.7,0-1,0c-2.4-6.2-5-13.1-7.1-18.7l-1.8-4.8c-1.4-3.8-2.5-6.5-2.8-7.3-.8-2.1-1.3-3.4-2.7-3.4s-1.9,1.4-2.7,3.7l-16.7,46.1c-1.5,4.3-2.9,5.9-5.2,6.2l-.4-.2ZM357.6,450.1c2.8,7.6,4.9,13.6,5.9,16.9-1.4-.2-2.9-.4-4.3-.4-2.9,0-5.4.5-7.4,1l5.8-17.6h0Z"/>
              <path d="M386.2,494.9c-3.5,0-7.3,0-11.6-.2h-.7c-1.4-.1-3.2-.2-3.2-2.2s.4-1.4,1-1.9c0,0,0,0,0-.2,0-.1-.1-.4-.3-.7l-.5-1.3c-1.1-3-3.2-8.5-4.8-12.6-.8-.2-1.8-.4-2.9-.8-6.1-2-8.5-2.5-12.6-2.5-.9,3-3,9.2-3.9,11.8l-.4,1.1c-.3,1-1,3.2-1,4.4s.8.5,1.1.5h.7c1.8,0,2.4,1.1,2.4,2.1s-.7,2.3-2.8,2.3-1.1,0-1.7,0c-.7,0-1.5-.1-2.2-.1h-3.4c-2.1.2-4.5.2-6.7.2s-3.1-.8-3.1-2.3,1-2.1,2.4-2.1.6,0,1,0c.4,0,.8,0,1,0h.1l.4.2c1.7-.3,3.1-1.4,4.6-5.8l16.7-46.1c.8-2.3,1.4-4,3.2-4s2.3,1.6,3.2,3.7c0,.2.2.6.4,1.1.5,1.3,1.4,3.5,2.4,6.2l1.8,4.8c1.9,4.9,4.6,12.2,7.1,18.7l-.4.2h0c0,.1,1-.5,1-.5,2.8,0,4.5-.7,4.5-.8l4-1.8-1.7,4.1h0c-.3.8-1.7,3.4-4.9,5,1.1,2.9,2.2,5.7,3,7.7,2.3,5.7,4,6.9,5.2,7.2h.4c.4.3.6.4,2.1.4,2.4,0,2.4,1.5,2.4,2.1,0,0,0,.1,0,.2.1.3.4.8,0,1.3-.4.6-1.3.8-3.3.8ZM374.6,493.7c4.3.1,8.1.2,11.6.2s2.5-.3,2.5-.4c0,0,0-.2-.1-.3,0-.2-.2-.4-.2-.6,0-.6,0-1.1-1.4-1.1s-1.9,0-2.5-.3h-.3c-1.4-.5-3.3-1.8-5.8-7.9-.9-2.1-2-5.1-3.2-8.2l-.2-.4.4-.2c3.4-1.5,4.6-4.2,4.8-4.5h0c0-.1.7-1.8.7-1.8l-1.6.8c0,0-1.8.8-4.9.8h-1.6v-.6c-2.5-6.4-5.2-13.6-7-18.5l-1.8-4.8c-1-2.7-1.9-4.9-2.4-6.2-.2-.5-.4-.9-.4-1.1-.8-2.1-1.2-3.1-2.2-3.1s-1.4,1.1-2.2,3.4l-16.7,46.1c-1.5,4.4-3.1,6.2-5.6,6.5h-.2s-.4-.2-.4-.2c-.2,0-.5,0-.9,0-.4,0-.8,0-1,0-.8,0-1.4.5-1.4,1.1s0,1.3,2.1,1.3,4.6,0,6.7-.2h3.4c.7,0,1.5,0,2.2.1.6,0,1.2,0,1.7,0,1.6,0,1.8-.9,1.8-1.3,0-.7-.5-1.1-1.4-1.1h-.7c-.7,0-2.1-.4-2.1-1.5s.5-3,1-4.7l.4-1.1c.9-2.6,3.1-9.2,4-12.1v-.4h.5c4.4,0,6.9.5,13.3,2.5,1.2.3,2.2.6,3,.8h.3c0,0,0,.3,0,.3,1.6,4.1,3.8,9.8,4.9,12.9l.5,1.3c.2.5.3.8.3.8v.2c0,.1,0,.1,0,.2,0,0,0,.2,0,.3v.3h-.3c-.5.3-.8.8-.8,1.3,0,.9.7,1.1,2.3,1.2h.3s.4,0,.4,0ZM351,468.3l6.1-18.5h.8c0,.1.1,0,.1,0,0,0,0,0,0,0h0s0,0,0,0c2.9,7.8,4.9,13.6,5.9,16.9l.2.8h-.8c-1.4-.3-2.9-.5-4.2-.5-3,0-5.4.5-7.3,1l-.9.2ZM357.6,451.6l-5.1,15.3c1.8-.4,4-.8,6.6-.8s2.4.1,3.6.3c-1-3.1-2.8-8.3-5.2-14.8Z"/>
            </g>
            <g>
              <path d="M468.3,513.9h-1.6c-9.7,0-19-8.5-28.4-26.1-3.7-6.8-7.7-12.2-12-16.1-.6-.5-2.9-2.2-4.1-3.2,1.5-.7,4.5-3,5.7-4.5,2.2-2.8,3.3-6.5,3.3-11s0-1.7-.1-2.6c-.5-5.8-3.7-9.6-5.6-11-4.2-3.1-9.5-3.5-14.1-3.5s-4.2,0-6.2.1h-3.3c-1.6,0-4.9-.2-7.4-.2s-2.4,1.2-2.4,1.8c0,.9.8,1.6,1.8,1.6s1.8,0,2.2.2c1.7.4,2.1.9,2.2,3.1.1,2.3.1,4.4.1,16v13.1c0,6.9,0,12.9-.4,16-.3,2.1-.6,3-1.2,3.1-.7.2-1.5.3-1.9.3-1.1,0-1.8.8-1.8,1.6s.2,1.8,2.4,1.8,3.5,0,6.7-.2h1c1.6,0,5.1.2,8.2.2s2.4-1.5,2.4-1.8c0-.8-.7-1.6-1.8-1.6s-2.1-.1-3.1-.3c-1.2-.2-1.6-.8-1.8-3-.4-3-.4-9-.4-16v-30.7c.7-.2,2.4-.3,4.3-.3h0c7.3,0,11.5,5,11.5,13.7s-.5,5.3-1.4,7.2h0c0,.3-.5,1-1.3,1.9-1,1-2.9,2.4-6.1,3.4h0c-.3,0-.6.2-1,.4h-.1c-.4.3-1.1.6-1.2,1.5h0c0,.4,0,.6.2.8h0c.4.7,1.1,1,1.8,1.2.4.2.8.3,1.3.6,1.3.8,3.2,2.6,3.6,3.1,2.4,2.9,4.6,6.8,7.2,11.3,4.7,8.2,10.6,18.3,19.8,26.6,4.2,3.8,10.3,5.6,18.8,5.6h0c3.4,0,4.1-.5,4.4-.6.4-.3,1-.6.9-1.6v-.2c0-.8-.6-1.3-1-1.5v-.2Z"/>
              <path d="M464.1,518.5c-8.6,0-14.9-1.9-19.1-5.7-9.5-8.6-15.5-19.1-19.9-26.7l-.5-.9c-2.4-4.1-4.4-7.7-6.7-10.4-.4-.5-2.3-2.2-3.5-3-.3-.2-.5-.3-.8-.4-.2,0-.3-.1-.5-.2-.6-.2-1.5-.5-2-1.3-.3-.3-.3-.7-.3-1.1.1-1,.8-1.5,1.2-1.8,0,0,.1,0,.2-.1h.1c0-.1.1-.1.1-.1h.1c.3-.2.6-.4.9-.4,3.3-1,5.1-2.5,5.8-3.3,1.1-1.2,1.2-1.6,1.2-1.6v-.2c.9-1.9,1.4-4.2,1.4-7,0-8.4-4-13.2-11-13.2s-3,0-3.8.2v30.3c0,7,0,13,.4,15.9.2,2.3.6,2.4,1.4,2.6,1,.2,2,.3,3,.3s2.3,1.1,2.3,2.1c0,.4.2,1-.3,1.5-.4.5-1.3.8-2.6.8s-3.8,0-5.4-.1c-1.2,0-2.2,0-2.8,0h-1c-3.2.2-4.5.2-6.7.2s-2.9-1.8-2.9-2.3c0-1,.9-2.1,2.3-2.1s1.1,0,1.8-.3c.2,0,.5-.5.8-2.7.4-3.1.4-9,.4-15.9v-13.1c0-11.6,0-13.7-.1-16,0-2-.4-2.3-1.8-2.6h-.1c-.3-.2-1.1-.2-2-.2-1.3,0-2.3-.9-2.3-2.1,0-.4,0-1.1.5-1.6.5-.5,1.3-.7,2.4-.7s3,0,4.5.1c1.2,0,2.2,0,2.9,0h3.3c2,0,4.8,0,6.2,0,4.7,0,10.1.4,14.4,3.6,2.3,1.7,5.2,5.6,5.8,11,0,0,0,.2,0,.4h0s0,0,0,0c0,.4,0,1.2,0,2.5,0,4.6-1.1,8.4-3.4,11.3-1.1,1.4-3.6,3.3-5.2,4.3.6.5,1.4,1.1,2.1,1.6.6.5,1.2.9,1.4,1.1,4.3,3.9,8.4,9.4,12.1,16.2,9.3,17.4,18.4,25.8,28,25.8h1.9l.2.3c.6.3,1.1,1,1.1,1.9v.2c.1,1.1-.6,1.6-1,1.9l-.4.2c-.4.2-1.4.6-4.5.6ZM412.8,467.8s0,0-.1,0c-.4.2-.7.5-.8,1,0,.3,0,.3,0,.4h0c.3.7.9.9,1.5,1.1.2.1.4.2.5.2.3.1.6.2.9.4,1.4.8,3.3,2.7,3.7,3.2,2.3,2.7,4.3,6.3,6.8,10.5l.5.9c4.4,7.6,10.3,18,19.7,26.5,4.1,3.7,10.1,5.5,18.5,5.5s3.7-.4,4.1-.5c0,0,0,0,0,0h0c.4-.3.6-.5.6-1.1v-.2c0-.7-.6-1-.7-1.1h-.2c0-.1-1.3-.1-1.3-.1-9.9,0-19.4-8.6-28.8-26.4-3.7-6.8-7.7-12.2-11.9-16-.2-.2-.8-.6-1.4-1.1-.9-.7-2-1.5-2.7-2.1l-.6-.5.7-.3c1.4-.7,4.3-2.9,5.5-4.4,2.1-2.7,3.2-6.3,3.2-10.7s0-1.8,0-2.2c0-.1,0-.3,0-.4-.5-5.6-3.6-9.3-5.4-10.7-4.1-3-9.3-3.4-13.8-3.4s-4.2,0-6.2,0h-3.3c-.7,0-1.8,0-2.9,0-1.4,0-3.1-.1-4.5-.1s-1.4.1-1.7.4c-.2.2-.2.5-.2.8,0,.7.6,1.2,1.3,1.2,1.1,0,1.9,0,2.4.2,1.9.5,2.4,1.2,2.5,3.6.1,2.3.1,4.4.1,16v13.1c0,6.9,0,12.9-.4,16.1-.3,2.2-.7,3.4-1.6,3.5-.7.2-1.5.3-2,.3-.8,0-1.3.6-1.3,1.1s.3,1.3,1.9,1.3,3.5,0,6.7-.2h1c.7,0,1.7,0,2.9,0,1.6,0,3.6.1,5.3.1s1.7-.3,1.9-.4c.1-.2.1-.4,0-.6,0-.1,0-.2,0-.2,0-.5-.5-1.1-1.3-1.1s-2.2-.1-3.2-.3c-1.6-.3-2-1.3-2.2-3.4-.4-3-.4-9.1-.4-16v-31.1h.4c1-.4,3.4-.4,4.4-.4,7.6,0,12,5.2,12,14.2s-.5,5.3-1.4,7.3c0,.3-.3.9-1.4,2.1-1.1,1.1-3,2.5-6.3,3.5h-.1c-.1,0-.3.1-.5.2l-.4.2Z"/>
            </g>
            <g>
              <path d="M396.7,542.5c-2.2,0-4.5-.4-6.9-1.2-2.3-.7-4.7-1.2-7.2-1.3v-18.2c2.3,0,8.2,0,9.2.2,3.6.4,4,1.2,4.2,1.8.3.7.4,1.7.4,2.2,0,1.6.9,2.2,1.8,2.2s1.4-.2,1.7-1.8c.1-.6.2-2,.3-3.5v-1.5c.1-1.1.3-1.9.4-2.5,0-.4.2-.8.2-1.1,0-1.4-.8-1.9-1.5-1.9s-.9.2-1.1.3h-.2c-.4,0-1.5.3-2.9.3h-16.8c-5.6,0-.4,0-.9,0h-.2c-1.7,0-4.8-.2-7.2-.2s-2.4,1.1-2.4,1.8.8,1.6,1.8,1.6,1.8,0,2.2.2c1.7.4,2.1.9,2.2,3.1.2,2.3.2,4.4.2,16v1.8c-3.4,1-5.6,2.4-5.8,2.5l-1.9,1.6h2.5c.1,0,3.7.3,4.9.3s.2,0,.3,0v6.9c0,7.2,0,12.9-.4,16-.3,2.4-.7,3-1.2,3.1-.7.2-1.5.3-1.9.3-1.2,0-1.8.8-1.8,1.6s.3,1.8,2.4,1.8,4,0,5.7-.2h4.3c2.9,0,7.6.4,15.3.4s4.4,0,5.1-2.9c.4-1.6,1-6.7,1-7.5,0-1.5-.5-2.3-1.6-2.3s-1.7,1.5-1.8,2.1c-.5,3-1.3,3.9-2.6,4.5-1.7.7-4.8.7-6.6.7-6.7,0-7.1-.6-7.3-4.9v-18.1c.9.3,1.9.6,3.3,1,2.4.8,4.7,1.2,6.7,1.2,8,0,10.4-5.9,10.4-6l1.1-2.8-2.8,1.3c-.1,0-1.8.8-4.7.8v.3Z"/>
              <path d="M396.4,575.6c-6,0-10.1-.2-13.1-.3-.8,0-1.5,0-2.2,0h-4.3c-1.6,0-3.6.2-5.7.2s-2.9-1.3-2.9-2.3.8-2.1,2.3-2.1,1.1,0,1.8-.3c.2,0,.6-.4.8-2.7.4-3.1.4-8.7.4-15.9v-6.4c-.8,0-3.7,0-4.7-.3h0s-3.9,0-3.9,0l3.2-2.6c1.7-1,3.5-1.8,5.4-2.4v-1.4c0-11.6,0-13.7-.2-16,0-2.1-.4-2.3-1.8-2.7h-.1c-.3-.2-1.1-.2-2-.2-1.3,0-2.3-1.1-2.3-2.1s0-2.3,2.9-2.3,2.9,0,4.2.1c1.2,0,2.2,0,3,0h17.9c1.3,0,2.4-.2,2.8-.3h.2c.3-.2.6-.3,1.2-.3,1,0,2,.7,2,2.4s0,.4-.1.6c0,.2,0,.4,0,.5,0,.3,0,.4-.1.6,0,.5-.2,1.1-.3,1.9v1.5c-.1,1.5-.2,3-.3,3.6-.3,1.9-1.1,2.2-2.2,2.2s-2.3-.7-2.3-2.7,0-1.4-.4-2c-.1-.4-.4-1.1-3.8-1.5-.9-.2-6.3-.2-8.6-.2v17.2c2.2.1,4.4.6,6.8,1.3,2.1.7,4.1,1.1,6.1,1.2v-.3c0,0,.6,0,.6,0,2.4,0,3.9-.5,4.4-.7,0,0,.1,0,.2,0l3.9-1.8-1.6,4h0c-.4,1.1-3.3,6.3-10.9,6.3s-4.5-.4-6.9-1.2c-1.1-.3-1.9-.6-2.6-.8v17.4c.2,3.9.2,4.4,6.8,4.4s4.8,0,6.4-.7c1.2-.5,1.8-1.3,2.3-4.1.1-.8.9-2.5,2.3-2.5s2.1.5,2.1,2.8-.6,6-1,7.6c-.2.7,0,1.3,0,1.7,0,.4.2.7,0,1.1-.4.5-1.2.5-5.5.5ZM377.2,574.2h3.9c.7,0,1.4,0,2.2,0,3,.1,7.1.3,13.1.3s4.3,0,4.7-.1c0,0,0-.2,0-.2-.1-.5-.3-1.2,0-2.1.4-1.5,1-6.6,1-7.4,0-1.8-.7-1.8-1.1-1.8-.7,0-1.2,1.2-1.3,1.7-.5,3.2-1.5,4.2-2.9,4.9-1.8.7-4.9.7-6.8.7-6.7,0-7.6-.6-7.8-5.4v-18.8s.7.2.7.2c.8.3,1.8.6,3.3,1,2.3.8,4.6,1.2,6.6,1.2,7.3,0,9.7-5,9.9-5.6h0c0,0,.6-1.7.6-1.7l-1.9.8c-.5.2-1.9.7-4,.8v.3c.1,0-.6,0-.6,0-2.2,0-4.6-.4-7.1-1.2-2.5-.8-4.8-1.2-7.1-1.3h-.5v-19.2h.5c3.8,0,8.4,0,9.3.2,3.3.4,4.2,1.1,4.6,2.1.3.8.4,1.9.4,2.4,0,1.1.5,1.7,1.3,1.7s.9,0,1.2-1.4c0-.6.2-2,.3-3.4v-1.5c0-.9.2-1.5.3-2,0-.2,0-.4.1-.5,0-.2,0-.5.1-.7,0-.1,0-.3,0-.3,0-1.3-.8-1.4-1-1.4-.4,0-.6,0-.7.2h-.2c0,.1-.3.1-.3.1-.3,0-1.4.3-3,.3h-19.4c-.5,0-1,0-1.5,0-1.3,0-2.9-.1-4.2-.1-1.9,0-1.9.7-1.9,1.3s.6,1.1,1.3,1.1c1.1,0,1.9,0,2.4.2,1.9.5,2.4,1.2,2.5,3.6.2,2.3.2,4.4.2,16v2.2h-.4c-2,.7-3.8,1.5-5.5,2.5,0,0,0,0-.1,0l-.8.7h1.4c.6.1,3.6.3,4.6.3h.8v.5s0,6.9,0,6.9c0,7.2,0,12.9-.4,16.1-.3,2.4-.7,3.4-1.6,3.5-.7.2-1.5.3-2,.3-.9,0-1.3.6-1.3,1.1s0,1.3,1.9,1.3,4-.1,5.7-.2h.4Z"/>
            </g>
            <g>
              <path d="M287.8,542.5c-2.2,0-4.5-.4-6.9-1.2-2.3-.7-4.7-1.2-7.2-1.3v-18.2c2.3,0,8.2,0,9.2.2,3.6.4,4,1.2,4.2,1.8.3.6.4,1.7.4,2.2,0,1.6.9,2.2,1.8,2.2s1.4-.2,1.7-1.8c0-.6.2-1.8.3-3.5v-1.5c.1-1.1.3-1.9.4-2.5.1-.4.2-.8.2-1.1,0-1.4-.8-1.9-1.5-1.9s-.9.2-1.1.3h-.2c-.4,0-1.5.3-2.9.3h-16.8c-5.6,0-.4,0-.9,0h-.2c-1.7,0-4.8-.2-7.2-.2s-2.4,1.1-2.4,1.8.8,1.6,1.8,1.6,1.8,0,2.2.2c1.7.4,2.1.9,2.2,3.1.2,2.3.2,4.4.2,16v1.8c-3.3,1-5.6,2.3-5.8,2.5l-2,1.7h2.6c.1,0,3.7.3,4.9.3s.2,0,.3,0v6.9c0,7.2,0,12.9-.4,16-.3,2.4-.7,3-1.2,3.1-.7.2-1.5.3-1.9.3-1.2,0-1.8.8-1.8,1.6s.3,1.8,2.4,1.8,4,0,5.7-.2h4.4c2.9,0,7.6.4,15.3.4s4.4,0,5.1-2.9c.4-1.6,1-6.7,1-7.5,0-1.5-.5-2.3-1.6-2.3s-1.7,1.5-1.8,2.1c-.5,3-1.3,3.9-2.6,4.5-1.7.7-4.8.7-6.6.7-6.7,0-7.1-.6-7.3-4.9v-18.1c.9.3,1.9.6,3.3,1,2.4.8,4.7,1.2,6.7,1.2,8,0,10.4-5.9,10.4-6l1.1-2.8-2.8,1.3c-.1,0-1.8.8-4.7.8v.2Z"/>
              <path d="M287.6,575.7c-6,0-10.1-.2-13.1-.3-.8,0-1.6,0-2.2,0h-4.4c-1.6,0-3.5.2-5.7.2s-2.9-1.3-2.9-2.3.8-2.1,2.3-2.1,1.1,0,1.8-.3c.2,0,.6-.4.8-2.7.4-3.1.4-8.7.4-15.9v-6.4c-.8,0-3.7,0-4.7-.3h0s-4,0-4,0l3-2.6c.3-.3,2.6-1.5,5.6-2.5v-1.4c0-11.6,0-13.7-.2-16,0-2.1-.4-2.3-1.8-2.7h-.1c-.3-.2-1.1-.2-2-.2-1.3,0-2.3-1.1-2.3-2.1s0-2.3,2.9-2.3,2.9,0,4.2.1c1.2,0,2.2,0,3,0h17.9c1.3,0,2.4-.2,2.8-.3h.2c.3-.2.6-.3,1.2-.3,1,0,2,.7,2,2.4s-.1.8-.2,1.2c0,.1,0,.3,0,.5,0,.5-.2,1.1-.3,1.9v1.5c0,.9-.1,1.7-.2,2.3,0,.5,0,.9,0,1.2-.4,1.9-1.1,2.3-2.2,2.3s-2.3-.7-2.3-2.7-.1-1.5-.3-2c-.2-.4-.4-1.1-3.8-1.5-.9-.2-6.3-.2-8.6-.2v17.2c2.2.1,4.4.6,6.8,1.3,2.2.7,4.3,1.1,6.3,1.2v-.2h.5c2.4,0,3.9-.5,4.4-.7,0,0,.1,0,.2,0l3.9-1.8-1.6,4h0c-.4,1.1-3.3,6.3-10.9,6.3s-4.5-.4-6.9-1.2c-1.1-.3-1.9-.6-2.6-.8v17.4c.2,3.9.2,4.4,6.8,4.4s4.8,0,6.4-.7c1.2-.5,1.8-1.3,2.3-4.1.1-.8.9-2.5,2.3-2.5s2.1.5,2.1,2.8-.6,6-1,7.6c-.2.7,0,1.3,0,1.7,0,.4.2.7,0,1.1-.4.5-1.2.5-5.5.5ZM268.3,574.3h4c.7,0,1.4,0,2.2,0,3,.1,7.1.3,13.1.3s4.3,0,4.7-.1c0,0,0-.2,0-.2-.1-.5-.3-1.2,0-2.1.4-1.6,1-6.6,1-7.4,0-1.8-.7-1.8-1.1-1.8-.7,0-1.2,1.2-1.3,1.7-.5,3.2-1.5,4.2-2.9,4.9-1.8.7-4.9.7-6.8.7-6.7,0-7.6-.6-7.8-5.4v-18.8s.7.2.7.2c.8.3,1.8.6,3.3,1,2.3.8,4.6,1.2,6.6,1.2,7.3,0,9.7-5,9.9-5.6h0c0,0,.6-1.7.6-1.7l-1.9.8c-.5.2-2,.7-4.2.8v.2h-.5c-2.2,0-4.6-.4-7.1-1.2-2.5-.8-4.8-1.2-7.1-1.3h-.5v-19.2h.5c3.8,0,8.4,0,9.3.2,3.3.4,4.2,1.1,4.6,2.1.3.7.4,1.9.4,2.4,0,1.1.5,1.7,1.3,1.7s.9,0,1.2-1.4c0-.2,0-.6,0-1.2,0-.6.1-1.4.2-2.2v-1.5c0-.9.2-1.5.3-2.1,0-.2,0-.4,0-.5.1-.4.2-.8.2-1,0-1.3-.8-1.4-1-1.4-.4,0-.6,0-.7.2h-.2c0,.1-.3.1-.3.1-.3,0-1.4.3-3,.3h-19.4c-.5,0-1,0-1.5,0-1.3,0-2.9-.1-4.2-.1-1.9,0-1.9.7-1.9,1.3s.6,1.1,1.3,1.1c1.1,0,1.9,0,2.4.2,1.9.5,2.4,1.2,2.5,3.6.2,2.3.2,4.4.2,16v2.2h-.4c-3.2,1.1-5.4,2.3-5.6,2.5l-1,.8h1.5c.6.1,3.6.3,4.6.3h.8v.5s0,6.9,0,6.9c0,7.2,0,12.9-.4,16.1-.3,2.4-.7,3.4-1.6,3.5-.7.2-1.5.3-2,.3-.9,0-1.3.6-1.3,1.1s0,1.3,1.9,1.3,4-.1,5.7-.2h.4Z"/>
            </g>
            <g>
              <path d="M3,430c.8,0,2.1,0,2.6.2,2.1.5,2.6,1.1,2.8,3.8.2,2.7.2,5.2.2,18.7v15.3c0,8.1,0,15.1-.4,18.7-.4,2.6-.8,3.6-1.6,3.8-.8.2-1.7.3-2.3.3-1.2,0-1.9.9-1.9,1.7s.3,1.9,2.6,1.9,4.4-.1,6.3-.2h2.1c1.9,0,3.9,0,6.4.2,4,.2,9,.3,16.6.3h.6c4.1,0,5.2-.6,6-3.2.7-2.6,1.3-8,1.3-9s0-1-.2-1.4c-.2-.7-.8-1.1-1.6-1.1h0c-.5,0-1.8.2-1.9,2.1-.2,1.3-1,3.4-2,4.6-1.6,2-4.9,2.2-9.1,2.2h-.4c-6.5,0-8.3-.6-9.4-1.6-1.4-1.3-1.5-9.9-1.5-19v-15.4c0-13.5,0-15.9.2-18.7.2-3,.7-3.5,2.3-3.8.9-.2,2.1-.2,2.6-.2,1.1,0,1.9-.7,1.9-1.7s-.3-1.9-2.6-1.9-5.5.1-7.7.2h-2.6c-1.8,0-5.7-.2-8.6-.2s-2.6,1.3-2.6,1.9c0,1,.8,1.7,1.9,1.7v-.2Z"/>
              <path d="M37,495.2h-.6c-7.3,0-12.5,0-16.6-.3-2.5-.2-4.5-.2-6.4-.2h-2.1c-1.9.1-4,.2-6.3.2s-3.1-1.3-3.1-2.4.9-2.2,2.4-2.2,1.3,0,2.2-.3c.5-.1.9-1.1,1.2-3.4.4-3.6.4-10.5.4-18.6v-15.3c0-13.5,0-16-.2-18.7-.2-2.6-.6-2.9-2.4-3.4-.4-.1-1.3-.2-2-.2v.2h-.5c-1.4,0-2.4-.9-2.4-2.2h0c0-.5,0-1.1.5-1.6.5-.5,1.4-.8,2.6-.8s3.6,0,5.3.1c1.3,0,2.5,0,3.3,0h2.6c2,0,5.3-.2,7.7-.2s3.1,1.2,3.1,2.4-1,2.2-2.4,2.2-1.6,0-2.5.2c-1.3.2-1.7.5-1.9,3.3-.2,2.8-.2,5.2-.2,18.7v15.4c0,6.5,0,17.4,1.3,18.6,1,.9,2.8,1.5,9.1,1.5h.4c3.9,0,7.2-.2,8.7-2,.9-1.1,1.7-3.1,1.9-4.4,0-1.8,1.3-2.5,2.4-2.5s1.8.6,2.1,1.5c.2.4.2,1,.2,1.5,0,1-.6,6.5-1.3,9.1-.9,3-2.5,3.6-6.5,3.6ZM13.4,493.7c1.9,0,3.9,0,6.4.2,4.1.2,9.3.3,16.6.3h.6c4.1,0,4.8-.6,5.5-2.8.7-2.5,1.3-7.9,1.3-8.9s0-.9-.1-1.2c-.2-.7-.8-.8-1.2-.8-.5,0-1.3.2-1.4,1.6-.2,1.4-1.1,3.6-2.1,4.9-1.8,2.2-5.3,2.4-9.5,2.4h-.4c-6.6,0-8.5-.6-9.7-1.7-1.4-1.3-1.7-7.5-1.7-19.4v-15.4c0-13.5,0-15.9.2-18.7.2-3.1.7-3.9,2.7-4.3.9-.2,2.2-.2,2.7-.2.8,0,1.4-.5,1.4-1.2s-.3-1.4-2.1-1.4-5.6.1-7.7.2h-2.6c-.8,0-2,0-3.4,0-1.7,0-3.6-.1-5.2-.1s-1.7.2-1.9.4c-.2.2-.2.4-.2.8v.2c0,.6.4,1,.9,1.1h0c0-.1.5-.1.5-.1,1.2,0,2.2,0,2.8.2,2.3.5,2.9,1.4,3.1,4.2.2,2.7.2,5.2.2,18.7v15.3c0,8.1,0,15.1-.4,18.8-.4,2.6-.8,3.9-2,4.2-.8.2-1.7.3-2.4.3s-1.4.7-1.4,1.2,0,1.4,2.1,1.4,4.3,0,6.3-.2h2.1Z"/>
            </g>
            <g>
              <path d="M78.4,495.4c17.7,0,30.5-13.3,30.5-31.6s-12.1-29-30.1-29-30.1,18.5-30.1,30.2,9.3,30.4,29.7,30.4ZM78.4,439.7c10.2,0,21.1,8.2,21.1,26.2s-15.9,24.3-19.1,24.3c-13.1,0-22.3-11.2-22.3-27.2s7.8-23.2,20.3-23.2h0Z"/>
              <path d="M78.4,495.9c-19.7,0-30.2-17.9-30.2-30.9s12.8-30.7,30.6-30.7,30.6,11.3,30.6,29.5-13,32.1-31,32.1ZM78.8,435.3c-17.2,0-29.6,17.7-29.6,29.7s8.6,29.9,29.2,29.9,30-13.1,30-31.1-11.3-28.5-29.6-28.5ZM80.4,490.7c-13.4,0-22.8-11.4-22.8-27.7s7-23.5,20.3-23.7h0s.5-.1.5-.1c10.4,0,21.6,8.4,21.6,26.7s-16.1,24.8-19.6,24.8ZM78.4,440.3c-13,0-19.8,7.8-19.8,22.7s9,26.7,21.8,26.7,18.6-6.2,18.6-23.8-10.3-25.4-20.1-25.7h0c0,0-.5,0-.5,0Z"/>
            </g>
            <g>
              <path d="M118.2,494.4c2.3,0,4.6-.1,5.9-.2h2.2c1.3,0,3.7.2,6.8.2s2.5-1,2.5-1.8-.8-1.6-1.8-1.6-1.9,0-3.3-.4c-1-.3-1.8-1.1-2-7.5l-.9-32.3c3.7,4.2,10.3,11.6,17,18.9,7.5,8.2,18.3,19.3,19.2,20.2l.3.3c4,4.1,4.7,4.7,5.8,4.8h.1c.7,0,1.5-.5,1.7-1.8.1-.8.2-2,.2-4.6v-43.5c.2-4.6.5-5.1,2-5.5.7-.2,1.1-.2,1.5-.2,1.1,0,2-.7,2-1.8-.1-1.6-1.9-1.6-2.5-1.6-2,0-3.8,0-5,.2h-2.8c-1.5,0-3.9-.2-6.1-.2h0c-.9,0-2.5,0-2.6,1.6h0c0,.3,0,.8.4,1.2.3.4.8.6,1.4.6s2.1,0,3.3.3c1.4.4,1.9,1,2,5.9l.7,34.6c-1.1-1.3-2.6-2.9-4.3-4.7-3.3-3.6-7.4-8.2-11.2-12.4-11.3-12.2-22.3-24.2-23.4-25.5-.2-.2-.4-.5-.7-.7-.8-.9-1.7-1.9-2.8-2-.7,0-1.5.5-1.8,1.7,0,.7-.2,1.6-.2,3.2v42.6c0,5.9-.4,8-1.5,8.3-.8.3-1.9.4-2.6.4h0c-1,0-1.8.7-1.8,1.7s.4,1.8,2.4,1.8v-.2Z"/>
              <path d="M170,495.5h-.1c-1.3-.1-2.2-.9-6.2-5l-.3-.3c-1-1-11.8-12.1-19.2-20.2-6-6.5-12-13.3-16.1-17.9l.9,30.9c.2,6.6,1.1,6.9,1.6,7,1.2.4,2.7.4,3.2.4,1.3,0,2.3.9,2.3,2.1s-.2,2.3-3,2.3-3.5,0-4.8-.1c-.8,0-1.5,0-2,0h-2.2c-1,0-3,.2-5.1.2v.2c.1,0-.7,0-.7,0-2.6,0-2.9-1.6-2.9-2.3,0-1.3,1-2.2,2.3-2.2s1.7,0,2.4-.4c1-.3,1.2-4.1,1.2-7.8v-42.6c0-1.6,0-2.5.2-3.3.4-1.6,1.5-2.1,2.3-2.1,1.3.1,2.3,1.2,3.1,2.1.2.2.4.4.6.5,0,0,.1.1.2.2,1.1,1.3,11.7,12.9,23.4,25.5,1.4,1.6,2.9,3.2,4.3,4.8,2.4,2.7,4.8,5.3,6.9,7.6,1.2,1.3,2.4,2.6,3.4,3.7l-.7-33.2c-.1-5-.6-5.1-1.6-5.4-1.1-.3-2.6-.3-3.2-.3s-1.4-.3-1.8-.8c-.5-.5-.5-1.2-.5-1.4h0c.1-2.2,2.2-2.2,3.1-2.2s2.5,0,3.6.1c.9,0,1.8,0,2.5,0h2.8c1.2-.2,2.9-.2,5-.2s2.9,1.1,3,2.1c0,1.4-1.1,2.3-2.5,2.3s-.7,0-1.4.2c-1.1.3-1.4.4-1.6,5v43.5c0,2.7-.1,3.9-.2,4.7-.3,1.7-1.3,2.2-2.2,2.2ZM127.1,449.4l.9,1c4,4.5,10.6,11.9,17,18.9,7.4,8.1,18.2,19.2,19.2,20.2l.3.3c3.9,4,4.6,4.6,5.5,4.7h0c.5,0,1-.4,1.2-1.4,0-.7.2-1.9.2-4.5v-43.5c.2-4.4.4-5.5,2.4-6,.8-.2,1.2-.2,1.6-.2.7,0,1.5-.4,1.5-1.3,0-.8-.7-1.1-2-1.1-1.9,0-3.8,0-4.9.2h-2.9c-.7,0-1.6,0-2.5,0-1.1,0-2.4-.1-3.6-.1s-2,.2-2.1,1.1h0c0,.2,0,.6.3.8.3.4.7.5,1,.5.6,0,2.2,0,3.4.3,1.9.5,2.3,1.7,2.4,6.4l.7,36-.9-1.1c-1.1-1.3-2.7-3-4.3-4.7-2.1-2.3-4.4-4.9-6.9-7.6-1.4-1.6-2.9-3.2-4.3-4.8-11.7-12.6-22.4-24.3-23.4-25.5,0,0-.1-.1-.2-.2-.1-.1-.3-.3-.4-.4h0c-.7-.9-1.6-1.8-2.5-1.9-.4,0-1,.3-1.3,1.3,0,.7-.2,1.5-.2,3.1v42.6c0,6.3-.4,8.4-1.9,8.8-.8.3-1.9.4-2.7.4s-1.3.5-1.3,1.2,0,1,1,1.2h0c0-.1.8-.1.8-.1,2.3,0,4.6,0,5.9-.2h2.2c.5,0,1.2,0,2,0,1.3,0,2.9.1,4.8.1s2-.2,2-1.3-.6-1.1-1.3-1.1-2.1,0-3.4-.4c-1.4-.4-2.2-1.7-2.4-8l-.9-33.7Z"/>
            </g>
            <g>
              <path d="M98.5,557.3c-1.6,0-1.9,1.7-2,2.3-.2,1.5-1.3,5.1-2.9,6.7-3.4,3.5-8.8,4-14.1,4-18.6,0-29.8-15.6-29.8-30.5s.9-15.5,7.4-21.8c2.6-2.6,7.4-6,18.9-6s13.8,2.4,16.4,4.7c1.9,1.6,3.2,4.8,3.2,7.9s0,1.3.2,1.7c.2.8.9,1.3,1.8,1.3h0c1.7,0,1.8-1.9,1.9-2.9v-3.2c0-1.9,0-4.2.2-5.8,0-1.9.2-3,.3-3.7,0-.5,0-.9,0-1.2,0-.6,0-1.1-.5-1.5-.3-.3-.8-.7-1.7-.7-2.6-.2-5.3-.7-8.4-1.2h-.2c-5.2-1-10.6-1.1-12.7-1.1-11.8,0-20.6,3.2-27,9.6-7.3,7.4-10,17.5-10,24.5,0,11.1,3.6,20.1,10.8,26.5,7.3,6.6,16.5,9.7,29.1,9.7h0c5.2,0,12.1-.5,15.9-2.1,1.8-.8,2.3-1.4,2.9-3.3.9-3,1.9-10.6,1.9-11.4,0-2.1-1.1-2.4-1.8-2.5h0ZM79.6,575.6h0Z"/>
              <path d="M79.5,577.1c-12.7,0-22-3.1-29.4-9.8-7.3-6.5-11-15.5-11-26.9s2.7-17.3,10.1-24.9c6.6-6.6,15.5-9.7,27.4-9.7s7.6.1,12.8,1.1h.1s1.8.3,1.8.3c2.3.4,4.6.8,6.6.9h0c1.2,0,1.8.6,2,.8.6.6.6,1.3.6,1.9s0,.3,0,.5c0,.2,0,.4,0,.7v.3c-.1.7-.3,1.7-.3,3.4-.2,1.6-.2,3.9-.2,5.8v3.4c-.1,1-.3,3.2-2.4,3.2s-2-.6-2.3-1.6c-.2-.5-.2-1-.2-1.9,0-2.9-1.2-6-3-7.5-2.5-2.2-8.6-4.6-16.1-4.6-11.4,0-16,3.3-18.5,5.9-6.4,6.2-7.3,14.3-7.3,21.4,0,18.8,14.9,30,29.3,30s10.5-.5,13.7-3.8c1.5-1.5,2.6-4.9,2.8-6.4.4-2.2,1.5-2.7,2.4-2.7h0s.1,0,.1,0c.6,0,2.2.4,2.2,3s-1,8.5-1.9,11.5c-.7,2.1-1.3,2.8-3.2,3.6-4.7,2-13.5,2.1-16.1,2.1ZM76.6,506.8c-11.6,0-20.3,3.1-26.6,9.5-7.3,7.4-9.9,17.3-9.9,24.1,0,11.1,3.6,19.9,10.6,26.1,7.2,6.5,16.4,9.6,28.8,9.6s11.2-.1,15.7-2.1c1.6-.7,2.1-1.2,2.6-3,.9-2.9,1.9-10.5,1.9-11.2,0-1.7-.8-1.9-1.3-2-.8,0-1.2.6-1.4,1.9-.2,1.5-1.3,5.3-3,7-3.5,3.6-9,4.1-14.5,4.1-8.7,0-16.6-3.5-22.2-9.8-5.1-5.8-8.1-13.5-8.1-21.2s.9-15.7,7.6-22.2c2.6-2.6,7.5-6.1,19.2-6.1s14.1,2.5,16.7,4.8c2,1.7,3.4,5,3.4,8.3s0,1.2.1,1.5h0c.1.7.6,1,1.3,1,1,0,1.2-.8,1.4-2.3h0c0-.1,0-3.3,0-3.3,0-1.9,0-4.2.2-5.9,0-1.7.2-2.7.3-3.5v-.2c0-.2,0-.5,0-.7,0-.1,0-.3,0-.4,0-.6,0-.9-.4-1.1s-.6-.6-1.3-.6c-2.2-.2-4.4-.5-6.8-.9l-1.7-.3h-.1c-5.2-1-10.6-1.1-12.7-1.1Z"/>
            </g>
            <g>
              <path d="M135,515.8c-22,0-30.1,18.5-30.1,30.2s9.3,30.4,29.7,30.4,30.5-13.3,30.5-31.6-12.1-29-30.1-29h0ZM136.6,571.2c-13.1,0-22.3-11.2-22.3-27.2s7.8-23.2,20.3-23.2,21.1,8.2,21.1,26.2-15.9,24.3-19.1,24.3h0Z"/>
              <path d="M134.6,576.9c-19.7,0-30.2-17.9-30.2-30.9s8.3-30.7,30.6-30.7,30.6,11.3,30.6,29.5-11.6,32.1-31,32.1ZM135,516.3c-21.6,0-29.6,18.2-29.6,29.7s8.6,29.9,29.2,29.9,30-11.6,30-31.1-11.3-28.5-29.6-28.5ZM136.6,571.8h-.5c-13.2-.4-22.3-11.7-22.3-27.8s7.2-23.7,20.8-23.7,21.6,9.7,21.6,26.7-16.1,24.8-19.6,24.8ZM134.6,521.3c-13,0-19.8,7.8-19.8,22.7s9,26.7,21.8,26.7h.5c4.1-.5,18.1-6.9,18.1-23.7s-7.3-25.7-20.6-25.7Z"/>
            </g>
            <g>
              <path d="M207.6,562.6h0c-.4,0-1.7.2-1.8,2-.2,1.1-.8,2.8-1.7,3.9-1.3,1.6-4.1,1.8-7.6,1.8h-.4c-5.5,0-7.1-.5-7.9-1.4-1.3-1.2-1.3-11.3-1.3-16.1v-13.2c0-11.6,0-13.6.1-16,.2-2.6.6-2.9,1.9-3.1.8,0,1.8-.2,2.2-.2,1,0,1.8-.7,1.8-1.6s-.2-1.8-2.4-1.8-4.8,0-6.6.2h-2.2c-1.6,0-4.9-.2-7.4-.2s-2.4,1.2-2.4,1.8c0,.9.8,1.6,1.8,1.6s1.8,0,2.2.2c1.7.4,2.1.9,2.2,3.1.1,2.3.1,4.4.1,16v13.1c0,6.9,0,12.9-.4,16-.3,2.1-.6,3-1.2,3.1-.8.2-1.5.3-1.9.3h0c-1,0-1.8.7-1.8,1.6s.2,1.8,2.4,1.8,3.8,0,5.5-.2h1.7c1.6,0,3.3,0,5.5,0,3.4,0,7.7.3,14.2.3h.6c3.5,0,4.6-.6,5.2-2.9.6-2.2,1.1-6.8,1.1-7.7s0-.9-.1-1.2c-.2-.6-.8-1.1-1.5-1.1v-.2Z"/>
              <path d="M202.8,576.2h-.6c-5.2,0-9-.1-12-.2h-2.2c-2.2-.2-3.9-.2-5.5-.2h-1.7c-1.7.2-4,.2-5.5.2-2.6,0-2.9-1.2-2.9-2.3s1-2.1,2.3-2.1.9,0,1.8-.3c.2,0,.5-.5.8-2.7.4-3.1.4-9,.4-15.9v-13.1c0-11.6,0-13.7,0-16,0-2-.4-2.3-1.8-2.6h-.1c-.3-.2-1.1-.2-2-.2-1.3,0-2.3-.9-2.3-2.1,0-.4,0-1.1.5-1.6.5-.5,1.3-.7,2.4-.7s3,0,4.5.1c1.2,0,2.2,0,2.9,0h2.2c.8,0,3.8-.2,6.6-.2s2.9,1.8,2.9,2.3c0,1.2-1,2.1-2.3,2.1s-1.4,0-2.1.2c-1,.2-1.3.2-1.5,2.6,0,2.4,0,4.4,0,16v13.2c0,3.6,0,14.7,1.1,15.7.7.8,2.2,1.3,7.6,1.3h.4c3.7,0,6.1-.3,7.2-1.6.8-1,1.4-2.6,1.6-3.7.1-1.9,1.5-2.4,2.3-2.4h.8l-.2.3c.6.2,1,.7,1.2,1.3.1.4.1.4.1,1.4s-.5,5.6-1.1,7.8c-.7,2.8-2.3,3.3-5.7,3.3ZM182.5,574.8c1.6,0,3.3,0,5.5.1h2.2c3,.2,6.8.3,12,.3h.6c3.5,0,4.2-.6,4.7-2.5.6-2.1,1.1-6.7,1.1-7.6s0-.8,0-1c-.1-.4-.5-.8-1-.8h-.6c-.3.2-.6.6-.6,1.3-.2,1.3-.9,3-1.8,4.2-1.5,1.8-4.6,2-8,2h-.4c-5.8,0-7.4-.6-8.3-1.6-1.2-1.1-1.4-7.4-1.4-16.4v-13.2c0-11.5,0-13.6.1-16,.2-2.6.6-3.3,2.3-3.6.8-.1,1.8-.2,2.3-.2.7,0,1.3-.5,1.3-1.1s-.3-1.3-1.9-1.3c-2.8,0-5.7.2-6.6.2h-2.2c-.7,0-1.8,0-2.9,0-1.4,0-3.1-.1-4.5-.1s-1.4.1-1.7.4c-.2.2-.2.5-.2.8,0,.7.6,1.2,1.3,1.2,1.1,0,1.9,0,2.4.2,1.9.5,2.4,1.2,2.5,3.6.1,2.3.1,4.4.1,16v13.1c0,6.9,0,12.9-.4,16.1-.3,2.2-.7,3.4-1.6,3.5-.7.2-1.5.3-2,.3-.7,0-1.3.5-1.3,1.1s0,1.3,1.9,1.3,3.8,0,5.4-.2h1.8Z"/>
            </g>
            <g>
              <path d="M251.1,562.6h0c-.5,0-1.7.2-1.8,2-.2,1.3-.9,2.9-1.7,3.9-1.3,1.6-4.1,1.8-7.6,1.8h-.4c-5.5,0-7.1-.5-8-1.4-1.2-1.2-1.3-10-1.3-15.1h0v-14.2c0-11.6,0-13.6.1-16,.2-2.6.6-2.9,1.9-3.1.8,0,1.8-.2,2.2-.2,1,0,1.8-.7,1.8-1.6s-.2-1.8-2.4-1.8-4.7,0-6.6.2h-2.2c-1.6,0-4.9-.2-7.4-.2s-2.4,1.2-2.4,1.8c0,.9.8,1.6,1.8,1.6s1.8,0,2.2.2c1.7.4,2.1.9,2.2,3.1.1,2.3.1,4.4.1,16v13.1c0,6.9,0,12.9-.4,16-.3,2.1-.6,3-1.2,3.1-.8.2-1.5.3-2,.3h0c-1,0-1.8.7-1.8,1.6s.2,1.8,2.4,1.8,3.8,0,5.4-.2h1.7c1.6,0,3.3,0,5.5,0,3.4,0,7.7.3,14.2.3h.6c3.5,0,4.6-.6,5.2-2.9.6-2.3,1.1-6.8,1.1-7.8s0-.9-.1-1.2c-.2-.7-.8-1.1-1.5-1.1h.4Z"/>
              <path d="M246,576.2h-.6c-5.2,0-9-.1-12-.2h-2.2c-2.2-.2-3.9-.2-5.5-.2h-1.7c-1.6.2-3.9.2-5.4.2-2.6,0-2.9-1.2-2.9-2.3s1-2.1,2.3-2.1,1.1-.1,1.9-.3c.2,0,.5-.5.8-2.7.4-3.1.4-9,.4-15.9v-13.1c0-11.6,0-13.7,0-16,0-2-.4-2.3-1.8-2.6h-.1c-.3-.2-1.1-.2-2-.2-1.3,0-2.3-.9-2.3-2.1,0-.4,0-1.1.5-1.6.5-.5,1.3-.7,2.4-.7s3,0,4.5.1c1.2,0,2.2,0,2.9,0h2.2c1.7,0,4.3-.2,6.6-.2s2.9,1.8,2.9,2.3c0,1.2-1,2.1-2.3,2.1s-1.4,0-2.1.2c-1,.2-1.3.2-1.5,2.6,0,2.4,0,4.4,0,16v14.2c0,11.8.7,14.3,1.2,14.7.8.8,2.3,1.3,7.6,1.3h.4c3.7,0,6.1-.3,7.2-1.6.8-.9,1.4-2.4,1.6-3.7,0-1.8,1.2-2.4,2.3-2.4h0c.8.3,1.3.8,1.6,1.6.1.4.1.8.1,1.3,0,1-.5,5.5-1.1,7.9-.7,2.8-2.3,3.3-5.7,3.3ZM225.7,574.8c1.6,0,3.3,0,5.5.1h2.2c3,.2,6.8.3,12,.3h.6c3.5,0,4.2-.6,4.7-2.5.6-2.3,1.1-6.7,1.1-7.7s0-.8,0-1c-.1-.5-.5-.8-1-.8h0c-.4,0-.8.5-.9,1.4-.2,1.4-1,3.1-1.8,4.2-1.5,1.8-4.6,2-8,2h-.4c-5.7,0-7.4-.5-8.4-1.5s-1.4-3-1.4-15.5v-14.2c0-11.5,0-13.6.1-16,.2-2.6.6-3.3,2.3-3.6.8-.1,1.8-.2,2.3-.2.7,0,1.3-.5,1.3-1.1s-.3-1.3-1.9-1.3c-2.3,0-4.8.1-6.6.2h-2.2c-.7,0-1.8,0-2.9,0-1.4,0-3.1-.1-4.5-.1s-1.4.1-1.7.4c-.2.2-.2.5-.2.8,0,.7.6,1.2,1.3,1.2,1.1,0,1.9,0,2.4.2,1.9.5,2.4,1.2,2.5,3.6.1,2.3.1,4.4.1,16v13.1c0,6.9,0,12.9-.4,16.1-.3,2.2-.7,3.4-1.6,3.5-.8.2-1.5.3-2.1.3s-1.3.5-1.3,1.1,0,1.3,1.9,1.3,3.8,0,5.3-.2h1.8Z"/>
            </g>
            <g>
              <path d="M356.5,545.1c-1.6,0-4.4,0-6.1.2h-2c-1.6,0-4.9-.2-7.4-.2s-2.4,1.2-2.4,1.8c0,.9.8,1.6,1.8,1.6s1.8,0,2.1.2c2.2.6,2.4.7,2.4,6.5v12.6c0,.9-.3,1.3-.9,1.6-1.6.9-5.1,1.4-7.8,1.4h0c-7.1,0-13.3-2.6-18.4-7.6-2.6-2.5-7.4-9.9-7.4-19.7s2.6-14.5,6.8-17.9c5.1-4.1,10.2-4.6,15-4.6,8.7,0,14.5,2.8,16.2,5.5,1.1,1.8,1.3,3.9,1.4,4.4h0c0,.7.2,2.1,1.6,2.2h.1c.7,0,1.3-.4,1.6-1.1.2-.5.2-1,.2-1.7,0-5.3.3-7.9.4-9.2,0-.6.1-1,.1-1.3,0-.9-.6-1.8-2-1.9-1.9,0-4.4-.4-5.8-.7-.2,0-6.2-1.3-11.5-1.3s-13.3.6-20.2,4.9c-8,5.1-12.8,14.6-12.8,25.4s4.9,18.4,9.1,22.1c6.2,5.5,14.6,8.2,25,8.2s11.4-.9,16.2-3.5c1.5-.9,1.6-1.8,1.6-5v-8.3c0-3.1,0-5.3.1-7.7.2-2.6.6-2.9,1.7-3.1.8,0,1.2-.2,1.6-.2,1,0,1.8-.7,1.8-1.6s-.2-1.8-2.4-1.8l.3-.2Z"/>
              <path d="M335.6,577c-10.6,0-19.1-2.8-25.3-8.3-4.3-3.8-9.3-11.9-9.3-22.5s4.9-20.6,13-25.8c5.4-3.4,12.1-5,20.5-5s9.4.9,11.1,1.2c.3,0,.4,0,.5,0,1.3.3,3.8.7,5.8.7,1.7.1,2.5,1.3,2.5,2.4s0,.3,0,.5c0,.2,0,.5,0,.8v.7c-.2,1.5-.4,4-.4,8.5s0,1.3-.2,1.9c-.4.9-1.2,1.4-2.1,1.4h-.1c-1.3,0-2.1-1.1-2.1-2.7,0,0,0,0,0-.2-.1-.7-.4-2.5-1.3-3.9-1.6-2.5-7.2-5.3-15.8-5.3s-9.5.3-14.7,4.5c-4.1,3.4-6.6,9.9-6.6,17.5s4.3,16.5,7.2,19.3c5.1,5,11.1,7.5,18.1,7.5s6-.5,7.6-1.3c.4-.2.6-.5.6-1.2v-12.6c0-5.5,0-5.5-2-6h-.1c-.2-.2-1.1-.2-1.8-.2-1.3,0-2.3-.9-2.3-2.1,0-.4,0-1.1.5-1.6.5-.5,1.3-.7,2.4-.7s3,0,4.5.1c1.2,0,2.2,0,2.9,0h2c1.6,0,4.4-.2,6.1-.2h1.6l-.6.4c1.4.5,1.5,1.7,1.5,2.1,0,1.2-1,2.1-2.3,2.1s-.5,0-.8,0c-.2,0-.5,0-.8.1-.8.1-1.1.2-1.3,2.6,0,2.4,0,4.6,0,7.7v8.3c0,3.2,0,4.4-1.8,5.4-4.9,2.6-11.7,3.6-16.5,3.6ZM334.5,516.4c-8.2,0-14.7,1.6-19.9,4.8-7.9,5-12.6,14.4-12.6,25s4.8,18.1,8.9,21.7c6,5.4,14.3,8.1,24.7,8.1s11.3-.9,16-3.4c1.2-.7,1.3-1.4,1.3-4.6v-8.3c0-3.1,0-5.3,0-7.7.2-2.6.6-3.3,2.1-3.6.3,0,.6,0,.8-.1.4,0,.6,0,.9,0,.7,0,1.3-.5,1.3-1.1s-.7-1.3-1.9-1.3h-1.6l.3-.2c-1.5,0-3.2.1-4.4.2h-2c-.7,0-1.8,0-2.9,0-1.4,0-3.1-.1-4.5-.1s-1.4.1-1.7.4c-.2.2-.2.5-.2.8,0,.7.6,1.2,1.3,1.2,1.2,0,1.9,0,2.3.2,2.5.7,2.7,1.2,2.7,7v12.6c0,1-.4,1.6-1.2,2-1.7.9-5.3,1.5-8,1.5-7.2,0-13.5-2.6-18.8-7.7-2.6-2.5-7.5-9.9-7.5-20.1s2.6-14.7,7-18.3c5.4-4.3,10.7-4.7,15.3-4.7,9,0,14.8,2.9,16.6,5.7,1,1.6,1.3,3.5,1.4,4.3,0,.1,0,.2,0,.3,0,.7.2,1.7,1.1,1.8.6,0,1-.3,1.2-.8.2-.4.2-.8.2-1.5,0-4.6.2-7.2.3-8.6v-.6c0-.3,0-.6.1-.9,0-.1,0-.3,0-.4,0-.3-.1-1.3-1.5-1.4h0c-2,0-4.6-.4-5.9-.7h0c-.1,0-.3,0-.5,0-1.6-.3-6.5-1.2-10.9-1.2Z"/>
            </g>
            <g>
              <path d="M188,462.8l-2.6,1.7h3.1c.1.1,3.7.3,4.9.3s.2,0,.3,0v6.9c0,7.2,0,12.9-.4,16-.3,1.9-.5,2.9-1.2,3.1s-1.5.3-1.9.3c-1.2,0-1.8.8-1.8,1.6s.3,1.8,2.4,1.8,4.6-.1,6-.2h4.1c2.9.1,7.6.3,15.3.3s4.4,0,5.1-2.8c.4-1.6,1-6.7,1-7.5,0-1.5-.5-2.3-1.6-2.3s-1.7,1.5-1.8,2.1c-.5,3-1.3,3.9-2.6,4.4-1.7.7-4.7.7-6.6.7-6.7,0-7.1-.6-7.3-4.9v-18.1c.9.3,1.9.6,3.3,1,2.4.8,4.7,1.2,6.7,1.2,7.9,0,10.4-5.9,10.4-6l1.1-2.8-2.8,1.3s-1.7.8-4.7.8-4.5-.4-6.9-1.2c-2.3-.7-4.7-1.2-7.1-1.3v-18.2c2.3,0,8.2,0,9.2.2,3.6.4,4,1.2,4.2,1.8.3.6.4,1.7.4,2.2,0,1.6.9,2.2,1.8,2.2s1.4-.2,1.7-1.8c.1-.6.2-2.2.3-3.5v-1.4c.1-1.2.3-1.9.4-2.5.1-.5.2-.8.2-1.1,0-1.4-.8-1.9-1.5-1.9s-.9.2-1.1.3h-.2c-.5.1-1.7.3-2.9.3h-17.7c-1.4,0-4.8-.2-7.4-.2s-2.4,1.1-2.4,1.8.8,1.6,1.8,1.6,1.8,0,2.2.2c1.7.4,2.1.9,2.2,3.1.1,2.3.1,4.4.1,16v1.8c-3.5,1-5.6,2.4-5.7,2.4v.3Z"/>
              <path d="M216.2,495.1c-6.9,0-11.4-.2-14.4-.3h-1s-4,0-4,0c-1.4,0-3.9.2-6,.2s-2.9-1.3-2.9-2.3.8-2.1,2.3-2.1,1.1,0,1.8-.3c.4-.1.6-1.2.8-2.7.4-3.1.4-8.7.4-15.9v-6.4c-.8,0-3.7,0-4.7-.3h0s-4.8,0-4.8,0l3.8-2.5v-.5h.4s0,0,.1,0c.7-.4,2.5-1.4,5.2-2.2v-1.4c0-11.6,0-13.7,0-16,0-2-.4-2.3-1.8-2.6h-.1c-.3-.2-1.1-.2-2-.2-1.3,0-2.3-1.1-2.3-2.1h0c0-.5,0-1.1.5-1.6.5-.5,1.2-.7,2.4-.7s3.2,0,4.8.1c1.1,0,2,0,2.6,0h17.7c1.2,0,2.5-.2,2.8-.3h.2c.3-.2.6-.3,1.2-.3,1,0,2,.7,2,2.4s0,.5-.1.8c0,.1,0,.3,0,.4,0,.2,0,.3-.1.5,0,.5-.2,1.1-.3,1.9v1.4s0,1,0,1c0,1.1-.2,2.1-.2,2.6-.3,1.9-1.1,2.2-2.2,2.2s-2.3-.7-2.3-2.7-.1-1.5-.3-2c-.2-.4-.4-1.1-3.8-1.5-.9-.2-6.3-.2-8.6-.2v17.2c2.1.1,4.3.6,6.7,1.3,2.4.8,3.9,1.2,6.8,1.2s4.5-.7,4.5-.8l3.9-1.8-1.6,4h0c-.4,1.1-3.4,6.3-10.9,6.3s-4.5-.4-6.9-1.2c-1.1-.3-1.9-.6-2.6-.8v17.4c.2,3.9.2,4.4,6.8,4.4s4.8,0,6.4-.7c1.1-.4,1.8-1.2,2.3-4,.1-.8.9-2.5,2.3-2.5s2.1.5,2.1,2.8-.6,6-1,7.6c-.2.7,0,1.2,0,1.6,0,.3.2.7,0,1.1-.4.5-1.2.5-5.6.5ZM197.5,493.8h4.3c3,.1,7.4.3,14.4.3s4.3,0,4.7-.1c0,0,0-.1,0-.2-.1-.4-.3-1.1,0-2.1.4-1.5,1-6.6,1-7.4,0-1.8-.7-1.8-1.1-1.8-.7,0-1.2,1.2-1.3,1.7-.5,2.9-1.2,4.1-2.9,4.8-1.8.7-4.8.7-6.8.7-6.7,0-7.6-.6-7.8-5.4v-18.8s.7.2.7.2c.8.3,1.8.6,3.3,1,2.3.8,4.6,1.2,6.6,1.2,7.2,0,9.7-5,9.9-5.6h0c0,0,.6-1.7.6-1.7l-1.7.8c0,0-1.8.8-4.9.8s-4.8-.5-7.1-1.2c-2.5-.8-4.8-1.2-7-1.3h-.5v-19.2h.5c3.8,0,8.4,0,9.3.2,3.3.4,4.2,1.1,4.6,2.1.3.7.4,1.9.4,2.4,0,1.1.5,1.7,1.3,1.7s.9,0,1.2-1.4c0-.4.1-1.5.2-2.5v-.9c0,0,0-1.4,0-1.4,0-.9.2-1.6.3-2.1,0-.2,0-.4.1-.5,0-.2,0-.3,0-.4,0-.2,0-.4,0-.6,0-1.3-.8-1.4-1-1.4-.4,0-.6,0-.7.2,0,0,0,0-.1,0h-.1c0,0-.3,0-.3,0-.3,0-1.6.3-2.9.3h-17.7c-.6,0-1.6,0-2.7,0-1.5,0-3.3-.1-4.7-.1s-1.6.2-1.7.4c-.2.2-.2.4-.2.8h0c0,.6.6,1.2,1.3,1.2,1.1,0,1.9,0,2.4.2,1.9.5,2.4,1.2,2.5,3.6.1,2.3.1,4.4.1,16v2.2h-.4c-2.8.9-4.6,1.9-5.3,2.3,0,0,0,0,0,0v.3l-1.4.9h1.7c.6.1,3.6.3,4.6.3h.8v.5s0,6.9,0,6.9c0,7.2,0,12.9-.4,16.1-.3,1.9-.5,3.2-1.6,3.5-.7.2-1.6.3-2,.3-.9,0-1.3.6-1.3,1.1s0,1.3,1.9,1.3,4.6,0,6-.2h.7Z"/>
            </g>
            <g>
              <path d="M250.6,492.6h0l.8.5h.2c.1,0,.3.1.4.2l.4.2h0c3.2,1.4,6.8,2,11.1,2s10.1-1.3,13.7-3.9c5.7-4.1,7.8-10.6,7.8-15.4,0-7-2.1-12.7-13-21.3l-2.4-1.9c-8.2-6.8-10-9.3-10-13.7s3.7-8.9,9.4-8.9,9,2.8,9.7,4c.4.7.9,2.9,1,3.9.1,1.5.8,2.2,1.9,2.2h0c1.7-.2,1.7-2,1.7-3.2,0-4.6.2-7.3.3-8.5v-.7c0-.8-.4-1.3-.6-1.4-.4-.3-.9-.4-1.4-.4s-1.1,0-2.7-.4c-2.5-.6-5.1-.9-8.3-.9-5.6,0-10.4,1.6-13.8,4.6s-5.2,7.2-5.2,12.2c0,7.2,3.4,12.9,11.6,19.7l3.9,3.2c7.4,6.2,9.4,9.3,9.4,14.7s-3.5,10.3-11.1,10.3-10.1-.8-11.5-7.9c-.2-1.1-.2-2.2-.2-3s0-.8-.2-1.3c-.3-.5-.8-.8-1.6-.8h0c-1.6,0-1.8,1.8-1.8,2.5v1c-.1,1.8-.4,4.7-.4,8.3s0,3,1.1,3.8l-.2.3Z"/>
              <path d="M263.5,496c-4.5,0-8.1-.6-11.3-2l-.6-.3s0,0-.1,0h-.3s-1.4-.8-1.4-.8l.2-.4c-.9-.9-.9-2.1-.9-3.9,0-2.7.2-5,.3-6.7,0-.6,0-1.1.1-1.6v-1c0-1.4.6-3,2.3-3s1.6.4,2,1c.3.7.3,1.1.3,1.6,0,.8,0,1.9.2,2.9,1.3,6.8,8.1,7.5,11,7.5,7.3,0,10.6-5.1,10.6-9.8s-1.9-8.2-9.2-14.3l-3.9-3.2c-8.4-6.9-11.8-12.8-11.8-20.1s1.9-9.5,5.4-12.6c3.5-3.1,8.4-4.7,14.1-4.7s5.8.3,8.4.9c1.5.4,2.1.4,2.6.4s1.3.2,1.7.5c.3.2.8.9.8,1.8v.7c0,.9-.3,3.6-.3,8.5s0,3.4-2.1,3.7h0c-1.5,0-2.3-1-2.4-2.7-.1-1-.6-3.1-.9-3.7-.8-1.4-3.1-3.7-9.3-3.7s-8.9,3.3-8.9,8.4,1.7,6.6,9.8,13.3l2.4,1.9c11,8.7,13.2,14.5,13.2,21.7s-2.1,11.6-8,15.8c-3.8,2.8-9.8,4-14,4ZM252.3,492.9l.3.2c3,1.3,6.5,1.9,10.9,1.9s9.8-1.2,13.4-3.8c5.6-4,7.6-10.4,7.6-15,0-6.8-2.1-12.5-12.8-20.9l-2.4-1.9c-8.3-6.9-10.2-9.5-10.2-14.1s3.9-9.4,9.9-9.4,9.2,2.7,10.1,4.2c.5.8,1,3.1,1.1,4.1.1,1.6.9,1.8,1.4,1.8,1.1-.1,1.2-1.3,1.2-2.7,0-4.9.2-7.6.3-8.5v-.7c0-.6-.3-.9-.3-1-.3-.2-.7-.3-1.2-.3s-1.2,0-2.8-.4c-2.5-.6-5.1-.9-8.2-.9-5.5,0-10.2,1.5-13.5,4.5-3.3,2.9-5,7-5,11.8,0,7,3.3,12.6,11.4,19.3l3.9,3.2c7.5,6.3,9.6,9.5,9.6,15.1s-3.6,10.8-11.6,10.8-10.5-.8-12-8.3c-.2-1.2-.2-2.3-.2-3.1s0-.7-.2-1.1c-.1-.2-.4-.5-1.1-.5-1.2,0-1.3,1.5-1.3,2v1c0,.5,0,1-.1,1.6-.1,1.7-.3,4-.3,6.7s0,2.8.9,3.4l.4.3-.2.3.3.2c.2,0,.5.1.7.3Z"/>
            </g>
          </g>
          <g>
            <g>
              <polygon points="192.8 166.7 225.3 66.5 264.4 151.4 227.5 2.9 175.7 141.8 25.4 141.7 157.7 227.8 95.6 166.7 192.8 166.7"/>
              <path d="M157.4,228.2L23.7,141.2h151.6c0,.1,52.2-140,52.2-140l37.3,150.1-.9.3-38.6-83.7-32.2,99.3h-96.3l61.2,60.2-.6.8ZM27.1,142.2l126.7,82.5-59.4-58.5h98.1l32.8-101.1,37.4,81.2L227.4,4.6l-51.4,137.7H27.1Z"/>
            </g>
            <g>
              <path d="M441.1,124.1s-117-14.6-230.3,72.9c0,0-99.6,82.7-113.5,221.1,0,0,56.9-158.7,160.4-220.4,103.4-61.7,132.3-60.4,183.5-73.6h-.1Z"/>
              <path d="M97.8,418.3l-1-.2c7.2-71.6,37.7-128,62.1-162.7,26.4-37.6,51.4-58.5,51.6-58.7,58.6-45.3,118.2-62.7,157.9-69.4,42.4-7.1,71.6-3.8,72.8-3.6h0v1c-8.6,2.2-16.7,4.1-24.5,5.9-39.1,8.9-72.9,16.5-158.7,67.7-53.4,31.8-94.1,90-118.8,133.1-26.8,46.8-41.2,86.6-41.4,87ZM421,123.7c-12.8,0-30.9.9-52.6,4.5-39.5,6.6-98.9,24-157.4,69.2-.2.2-25.2,21.1-51.5,58.6-23.8,34-53.6,88.8-61.4,158.3,4.2-10.9,17.9-44.8,40-83.5,24.8-43.3,65.6-101.6,119.2-133.5,85.9-51.2,119.8-58.9,159-67.8,7-1.6,14.2-3.2,21.8-5.1-3.2-.3-9.1-.6-17.2-.6Z"/>
            </g>
            <g>
              <polygon points="153.7 370.5 226.1 275 310.3 329.3 272.4 240 367.2 173.1 305.5 247.8 347 374.1 227.9 308 153.7 370.5"/>
              <path d="M347.9,375.2l-119.9-66.6-73.9,62.3-.7-.7,72.7-95.9.4.3,82.8,53.4-37.4-88.2,95.1-67.1.7.7-61.5,74.5,41.8,127.3ZM227.8,307.4l.3.2,118,65.5-41.2-125.3.2-.2,59.3-71.8-91.4,64.5,38.4,90.4-85.2-54.9-69.4,91.6,71-59.8Z"/>
            </g>
          </g>
        </g>
      </g>
    </g>
  </g>
</svg>